<svg id="Text" xmlns="http://www.w3.org/2000/svg" viewBox="0 0 1642 263.67"><defs><style>.cls-1,.cls-2{fill:#fff;}.cls-2{font-size:200px;font-family:Vonique64-Bold, Vonique 64;font-weight:700;}</style></defs><title>logo</title><g id="rightbutt"><path class="cls-1" d="M119.24,171.45l7,6.94c3.85,3.81,8.4,8.34,10.09,10l3.09,3.09,3.62-3.63,32.38-32.59C256.36,73.82,259.12,71,259.08,70.89s-20-20-20.11-19.92-.65.56-35.48,35.61c-60.3,60.7-67.83,68.27-75.93,76.45Z"/><path class="cls-1" d="M124.48,13.1c.1.34.36,1.19.58,1.89a81.09,81.09,0,0,0,5.06,12c6.11,11.58,13.61,19.15,24.08,24.3A58.84,58.84,0,0,0,177.3,57l2,.06,2.65-2.9c1.46-1.6,2.64-2.92,2.62-3a12.83,12.83,0,0,0-1.4.13,64.27,64.27,0,0,1-10.47-.22,46.42,46.42,0,0,1-15.23-4.48,45.86,45.86,0,0,1-7.89-4.93,67.31,67.31,0,0,1-10-10.42c-4.63-6.05-8.24-13.36-9.48-19.2-.18-.85-.34-1.58-.35-1.61s-2.78,1-5.3,1.92C124.31,12.47,124.33,12.63,124.48,13.1Z"/><path class="cls-1" d="M142.9,20.79c6.5,11.9,16.55,19.85,27.83,22.05a34.92,34.92,0,0,0,21.87-2.25c2.82-1.28,4.92-2.55,10.38-6.24,6.32-4.27,8.68-5.48,12.3-6.31a24.66,24.66,0,0,1,6.35-.11A22.17,22.17,0,0,1,231.57,32a25.35,25.35,0,0,1,6.87,8l.84,1.58,1.91-2.3c1.05-1.26,1.92-2.34,1.95-2.41a13.49,13.49,0,0,0-2.09-3.28c-5.27-7-12.25-11.12-19.69-11.65a27.07,27.07,0,0,0-6.35.36c-3.68.79-6.41,2.34-13.15,7.41-7.31,5.52-13.62,8-22.44,8.78a23.73,23.73,0,0,1-13-2.51,34.43,34.43,0,0,1-9.61-7,58.48,58.48,0,0,1-8.71-11.2,5.2,5.2,0,0,0-.78-1.16c-.07,0-1.25.55-2.63,1.23C141.76,19.25,141.91,19,142.9,20.79Z"/><path class="cls-1" d="M154.82,13.58l.23.53a37,37,0,0,0,2.46,4.51A24.43,24.43,0,0,0,171.11,29a27.64,27.64,0,0,0,12.78.23c4.22-.93,7.07-2.38,12.33-6.31a46.21,46.21,0,0,1,8.52-5.46,38.23,38.23,0,0,1,22-2.71c8.26,1.69,16.18,7.2,21.42,14.91.39.58.76,1.12.83,1.19A12.22,12.22,0,0,0,251.16,29l2.06-1.92-.42-.58a53.3,53.3,0,0,0-10.2-10.29,40.49,40.49,0,0,0-15.28-7.17A39.72,39.72,0,0,0,209,9.75c-5.22,1.36-8.79,3.26-15.47,8.17-4.28,3.14-6.95,4.59-9.91,5.36a21.92,21.92,0,0,1-12.38-.47,19.56,19.56,0,0,1-10.88-10.52c-.33-.77-.63-1.43-.66-1.44s-3.15,1.69-4.42,2.46Z"/><path class="cls-1" d="M243.25,46l10.09,10,10.09,10,2.24-2.25,2.22-2.26-5.72-5.67-10.09-10-4.38-4.35-2.23,2.25Z"/><path class="cls-1" d="M252.89,36.68s4.52,4.58,10.07,10.09l10.11,10,2.22-2.24,2.21-2.24L267.43,42.29l-10.08-10-2.22,2.2C253.91,35.65,252.9,36.67,252.89,36.68Z"/></g><g id="Leftbutt"><path class="cls-1" d="M150.9,162.74c-8.17-8.11-15.76-15.62-76.59-75.78C39.17,52.21,38.66,51.71,38.52,51.65S18.67,71.52,18.58,71.75s2.75,2.91,84.39,83.66l32.66,32.3,3.65,3.6,3.06-3.11c1.68-1.7,6.18-6.26,10-10.11l7-7Z"/><path class="cls-1" d="M152.7,12.1c-2.52-.92-5.28-1.9-5.31-1.87s-.17.75-.34,1.61c-1.19,5.85-4.73,13.19-9.31,19.28a67.41,67.41,0,0,1-9.92,10.51,45.34,45.34,0,0,1-7.84,5,46.5,46.5,0,0,1-15.19,4.62,63.6,63.6,0,0,1-10.47.3c-.75-.08-1.37-.12-1.4-.11s1.17,1.34,2.64,2.92l2.68,2.88,2-.07a58.73,58.73,0,0,0,23.06-6c10.42-5.24,17.86-12.87,23.86-24.5a81,81,0,0,0,5-12l.57-1.89C152.82,12.31,152.83,12.16,152.7,12.1Z"/><path class="cls-1" d="M132.55,17.71c-1.39-.66-2.57-1.2-2.64-1.2a4.91,4.91,0,0,0-.77,1.17A58.78,58.78,0,0,1,120.52,29,34.35,34.35,0,0,1,111,36.07a23.61,23.61,0,0,1-13,2.62C89.13,38,82.8,35.57,75.44,30.11c-6.79-5-9.53-6.53-13.21-7.3a27.8,27.8,0,0,0-6.35-.3c-7.44.6-14.38,4.79-19.59,11.82a13.76,13.76,0,0,0-2.07,3.3c0,.07.92,1.14,2,2.4l1.93,2.28L39,40.72a25.59,25.59,0,0,1,6.8-8.1,22.25,22.25,0,0,1,9.91-4.16,24.79,24.79,0,0,1,6.35.06c3.63.8,6,2,12.35,6.2,5.49,3.65,7.61,4.9,10.43,6.15a34.89,34.89,0,0,0,21.9,2.06c11.26-2.3,21.23-10.34,27.63-22.29C135.29,18.84,135.45,19.09,132.55,17.71Z"/><path class="cls-1" d="M121.88,13.27c-1.28-.76-4.41-2.47-4.44-2.42s-.33.67-.66,1.44A19.52,19.52,0,0,1,106,22.91a22.05,22.05,0,0,1-12.37.58c-3-.75-5.66-2.18-10-5.28-6.73-4.85-10.31-6.72-15.54-8A39.66,39.66,0,0,0,49.8,9.65,40.26,40.26,0,0,0,34.59,17,53.45,53.45,0,0,0,24.47,27.33l-.41.59,2.07,1.89a13.59,13.59,0,0,0,2.19,1.77c.07-.08.44-.62.83-1.2,5.16-7.76,13-13.34,21.28-15.1a38.24,38.24,0,0,1,22,2.52A45.71,45.71,0,0,1,81,23.18c5.29,3.89,8.16,5.31,12.39,6.2a27.7,27.7,0,0,0,12.77-.33,24.4,24.4,0,0,0,13.51-10.46,34.89,34.89,0,0,0,2.42-4.53l.23-.52Z"/><path class="cls-1" d="M32,44.46l-2.24-2.24-4.35,4.39c-2.39,2.43-6.89,7-10,10.12L9.69,62.45l2.25,2.23,2.25,2.24,10-10.12,10-10.12Z"/><path class="cls-1" d="M22.22,35.28,20,33.1,10,43.22,0,53.36l2.23,2.22L4.47,57.8l10-10.13c5.5-5.56,10-10.15,10-10.18S23.45,36.47,22.22,35.28Z"/></g><text class="cls-2" transform="translate(290 170.02)">suckin butts</text></svg>