<svg xmlns="http://www.w3.org/2000/svg" viewBox="0 0 2552 409.8"><defs><style>.cls-1,.cls-2{fill:#fff;}.cls-2{font-size:310.84px;font-family:Vonique64-Bold, Vonique 64;font-weight:700;}</style></defs><title>logo</title><g id="Butts"><g id="rightbutt"><path class="cls-1" d="M185.32,266.47l10.9,10.79c6,5.92,13.05,12.95,15.68,15.57l4.81,4.8,5.61-5.65,50.33-50.64c125.78-126.61,130.08-130.94,130-131.16s-31.07-31-31.25-31-1,.88-55.15,55.36c-93.72,94.33-105.41,106.1-118,118.81Z"/><path class="cls-1" d="M193.46,20.36c.16.53.57,1.85.91,2.94a126.3,126.3,0,0,0,7.87,18.58c9.49,18,21.15,29.75,37.42,37.75a91.35,91.35,0,0,0,35.91,9l3.1.08,4.12-4.51c2.27-2.47,4.09-4.53,4.07-4.57a21.54,21.54,0,0,0-2.17.19,99.07,99.07,0,0,1-16.29-.33,72.46,72.46,0,0,1-23.67-7,71.61,71.61,0,0,1-12.25-7.66,104.79,104.79,0,0,1-15.55-16.19c-7.21-9.4-12.81-20.76-14.74-29.84-.28-1.33-.53-2.46-.55-2.5s-4.32,1.51-8.23,3C193.21,19.38,193.23,19.62,193.46,20.36Z"/><path class="cls-1" d="M222.09,32.31c10.11,18.49,25.73,30.85,43.25,34.27,12.4,2.42,23.52,1.28,34-3.5,4.38-2,7.65-3.95,16.13-9.69,9.82-6.64,13.49-8.52,19.11-9.81a38.75,38.75,0,0,1,9.87-.18,34.74,34.74,0,0,1,15.46,6.33,39.37,39.37,0,0,1,10.67,12.5l1.31,2.45,3-3.57c1.62-2,3-3.63,3-3.75.11-.29-1.37-2.63-3.25-5.1-8.2-10.85-19-17.28-30.61-18.1a43,43,0,0,0-9.86.55c-5.72,1.24-10,3.65-20.44,11.53-11.36,8.57-21.16,12.39-34.88,13.64A36.84,36.84,0,0,1,258.59,56a53.73,53.73,0,0,1-14.94-11,91.39,91.39,0,0,1-13.54-17.4,8.26,8.26,0,0,0-1.21-1.81c-.11,0-2,.86-4.09,1.91C220.32,29.93,220.56,29.52,222.09,32.31Z"/><path class="cls-1" d="M240.62,21.11l.36.82a55.28,55.28,0,0,0,3.82,7c5.47,8.17,12.79,13.73,21.14,16.07a43.12,43.12,0,0,0,19.86.35c6.55-1.45,11-3.7,19.16-9.81,6.4-4.77,9.29-6.61,13.25-8.48,9.82-4.64,23.71-6.35,34.2-4.21C365.24,25.47,377.55,34,385.68,46c.61.9,1.19,1.74,1.3,1.85a19.58,19.58,0,0,0,3.38-2.77l3.19-3-.65-.91a82.9,82.9,0,0,0-15.86-16A62.73,62.73,0,0,0,353.3,14.08a61.71,61.71,0,0,0-28.48,1.07c-8.1,2.12-13.65,5.06-24,12.7-6.64,4.88-10.8,7.13-15.4,8.34a34.19,34.19,0,0,1-19.24-.73,30.39,30.39,0,0,1-16.9-16.36c-.52-1.2-1-2.21-1-2.24s-4.88,2.63-6.87,3.82Z"/><path class="cls-1" d="M378.06,71.43,393.74,87l15.68,15.59,3.48-3.5,3.45-3.51-8.89-8.81c-4.86-4.85-11.92-11.85-15.68-15.59L385,64.43l-3.46,3.51Z"/><path class="cls-1" d="M393,57c0,.05,7,7.12,15.66,15.69l15.7,15.61,3.46-3.48,3.43-3.49L415.63,65.73,400,50.13l-3.46,3.42C394.62,55.41,393.06,57,393,57Z"/></g><g id="Leftbutt"><path class="cls-1" d="M234.54,252.93c-12.71-12.6-24.51-24.27-119-117.78-54.61-54-55.41-54.78-55.63-54.87s-30.84,30.88-31,31.24S33.15,116,160,241.54c24.82,24.53,47.66,47.12,50.77,50.2l5.67,5.6,4.76-4.84c2.61-2.65,9.61-9.73,15.54-15.71l10.81-10.89Z"/><path class="cls-1" d="M237.33,18.81c-3.92-1.44-8.21-3-8.25-2.92s-.27,1.18-.53,2.51c-1.85,9.1-7.35,20.51-14.48,30A104.28,104.28,0,0,1,198.66,64.7a71.72,71.72,0,0,1-12.18,7.76,72.42,72.42,0,0,1-23.61,7.18,99.76,99.76,0,0,1-16.28.47,18.58,18.58,0,0,0-2.18-.17s1.82,2.08,4.11,4.54L152.68,89l3.1-.12a91.12,91.12,0,0,0,35.83-9.28c16.2-8.15,27.76-20,37.09-38.08a126.81,126.81,0,0,0,7.71-18.65c.33-1.09.73-2.42.88-2.95C237.51,19.14,237.53,18.89,237.33,18.81Z"/><path class="cls-1" d="M206,27.53c-2.16-1-4-1.88-4.11-1.88a8.39,8.39,0,0,0-1.19,1.82A91.68,91.68,0,0,1,187.32,45a53.87,53.87,0,0,1-14.85,11.07,36.78,36.78,0,0,1-20.22,4.07c-13.73-1.13-23.56-4.86-35-13.34C106.7,39,102.44,36.65,96.72,35.46A42.75,42.75,0,0,0,86.84,35c-11.55.92-22.34,7.44-30.44,18.37-1.86,2.49-3.32,4.84-3.21,5.13.05.11,1.42,1.77,3.07,3.72l3,3.54,1.28-2.46A39.64,39.64,0,0,1,71.1,50.69a34.74,34.74,0,0,1,15.41-6.45,38.07,38.07,0,0,1,9.87.09c5.63,1.23,9.32,3.09,19.2,9.64,8.53,5.66,11.81,7.61,16.21,9.55,10.52,4.69,21.65,5.73,34,3.21,17.49-3.58,33-16.07,43-34.66C210.27,29.28,210.51,29.68,206,27.53Z"/><path class="cls-1" d="M189.43,20.62c-2-1.18-6.86-3.83-6.91-3.76s-.51,1-1,2.24a30.45,30.45,0,0,1-16.77,16.51,34.31,34.31,0,0,1-19.23.9c-4.61-1.17-8.78-3.38-15.47-8.21-10.46-7.54-16-10.44-24.15-12.49A61.7,61.7,0,0,0,77.41,15,62.64,62.64,0,0,0,53.76,26.35,82.6,82.6,0,0,0,38,42.48l-.64.91,3.22,2.94A20.11,20.11,0,0,0,44,49.08c.11-.12.68-1,1.28-1.87,8-12.06,20.26-20.73,33.07-23.46,10.47-2.23,24.38-.64,34.24,3.92,4,1.83,6.88,3.65,13.32,8.36,8.22,6,12.68,8.25,19.25,9.64A43.16,43.16,0,0,0,165,45.15c8.33-2.41,15.6-8,21-16.25a54.51,54.51,0,0,0,3.75-7l.36-.82Z"/><path class="cls-1" d="M49.66,69.1l-3.49-3.48-6.75,6.82C35.7,76.22,28.7,83.28,23.88,88.17l-8.82,8.89,3.49,3.47L22.06,104,37.61,88.28,53.15,72.55Z"/><path class="cls-1" d="M34.53,54.84,31,51.45,15.52,67.18,0,82.93l3.47,3.46L7,89.84,22.52,74.09C31.07,65.44,38,58.31,38,58.27S36.44,56.67,34.53,54.84Z"/></g></g><g id="Text"><text class="cls-2" transform="translate(450.72 264.24)">suckin butts</text></g></svg>