<svg xmlns="http://www.w3.org/2000/svg" viewBox="0 0 2517.32 284.74"><defs><style>.cls-1{fill:#fff;}</style></defs><title>logo</title><g id="Butts"><g id="rightbutt"><path class="cls-1" d="M185.32,253.57l10.9,10.8c6,5.92,13.05,12.95,15.68,15.57l4.81,4.8,5.61-5.65,50.33-50.64c125.78-126.61,130.08-130.94,130-131.16s-31.07-31-31.25-31-1,.87-55.15,55.35c-93.72,94.33-105.41,106.11-118,118.82Z"/><path class="cls-1" d="M193.46,7.46c.16.53.57,1.86.91,3A125.76,125.76,0,0,0,202.24,29c9.49,18,21.15,29.75,37.42,37.76a91.17,91.17,0,0,0,35.91,9l3.1.09,4.12-4.51c2.27-2.48,4.09-4.53,4.07-4.57a18.58,18.58,0,0,0-2.17.19,99.07,99.07,0,0,1-16.29-.33,72.23,72.23,0,0,1-23.67-7A70.94,70.94,0,0,1,232.48,52a104.79,104.79,0,0,1-15.55-16.19c-7.21-9.4-12.81-20.76-14.74-29.84-.28-1.33-.53-2.46-.55-2.51s-4.32,1.52-8.23,3C193.21,6.49,193.23,6.73,193.46,7.46Z"/><path class="cls-1" d="M222.09,19.42c10.11,18.49,25.73,30.85,43.25,34.27,12.4,2.42,23.52,1.28,34-3.5,4.38-2,7.65-4,16.13-9.69,9.82-6.64,13.49-8.53,19.11-9.81a38.3,38.3,0,0,1,9.87-.18,34.84,34.84,0,0,1,15.46,6.32,39.52,39.52,0,0,1,10.67,12.51l1.31,2.45,3-3.57c1.62-2,3-3.64,3-3.75.11-.29-1.37-2.63-3.25-5.1-8.2-10.85-19-17.28-30.61-18.11a43.49,43.49,0,0,0-9.86.56c-5.72,1.24-10,3.64-20.44,11.52-11.36,8.58-21.16,12.4-34.88,13.65a36.85,36.85,0,0,1-20.26-3.9,53.49,53.49,0,0,1-14.94-10.94,91.7,91.7,0,0,1-13.54-17.4,8.26,8.26,0,0,0-1.21-1.81c-.11,0-2,.85-4.09,1.91C220.32,17,220.56,16.63,222.09,19.42Z"/><path class="cls-1" d="M240.62,8.22,241,9a55.28,55.28,0,0,0,3.82,7c5.47,8.17,12.79,13.73,21.14,16.07a43,43,0,0,0,19.86.34c6.55-1.44,11-3.69,19.16-9.8,6.4-4.77,9.29-6.61,13.25-8.48C328,9.53,341.92,7.82,352.41,10c12.83,2.62,25.14,11.18,33.27,23.17.61.9,1.19,1.74,1.3,1.85a19.58,19.58,0,0,0,3.38-2.77l3.19-3-.65-.9a82.62,82.62,0,0,0-15.86-16A62.73,62.73,0,0,0,353.3,1.19a61.57,61.57,0,0,0-28.48,1.07c-8.1,2.12-13.65,5.06-24,12.7-6.64,4.88-10.8,7.13-15.4,8.34a34.37,34.37,0,0,1-19.24-.73,30.39,30.39,0,0,1-16.9-16.36,24.54,24.54,0,0,0-1-2.24c0-.06-4.88,2.63-6.87,3.82Z"/><path class="cls-1" d="M378.06,58.53l15.68,15.6,15.68,15.59,3.48-3.51,3.45-3.5-8.89-8.81c-4.86-4.85-11.92-11.85-15.68-15.6L385,51.54l-3.46,3.51Z"/><path class="cls-1" d="M393,44.12c0,.05,7,7.12,15.66,15.68l15.7,15.62,3.46-3.49,3.43-3.48L415.63,52.83,400,37.24l-3.46,3.42C394.62,42.51,393.06,44.1,393,44.12Z"/></g><g id="Leftbutt"><path class="cls-1" d="M234.54,240c-12.71-12.6-24.51-24.26-119-117.77-54.61-54-55.41-54.78-55.63-54.87S29,98.27,28.88,98.63s4.27,4.51,131.15,130c24.82,24.53,47.66,47.12,50.77,50.2l5.67,5.6,4.76-4.85c2.61-2.64,9.61-9.73,15.54-15.7L247.58,253Z"/><path class="cls-1" d="M237.33,5.91C233.41,4.48,229.12,3,229.08,3s-.27,1.18-.53,2.51c-1.85,9.09-7.35,20.5-14.48,30A103.74,103.74,0,0,1,198.66,51.8a71.77,71.77,0,0,1-12.18,7.77,72.42,72.42,0,0,1-23.61,7.18,99.76,99.76,0,0,1-16.28.47c-1.16-.13-2.13-.2-2.18-.18s1.82,2.09,4.11,4.54l4.16,4.48,3.1-.12a91,91,0,0,0,35.83-9.29c16.2-8.14,27.76-20,37.09-38.08a126.27,126.27,0,0,0,7.71-18.64c.33-1.09.73-2.42.88-2.95C237.51,6.25,237.53,6,237.33,5.91Z"/><path class="cls-1" d="M206,14.64c-2.16-1-4-1.88-4.11-1.88a8.39,8.39,0,0,0-1.19,1.82A91.3,91.3,0,0,1,187.32,32.1a53.72,53.72,0,0,1-14.85,11.08,36.87,36.87,0,0,1-20.22,4.07c-13.73-1.13-23.56-4.87-35-13.34-10.55-7.79-14.81-10.16-20.53-11.35a43.31,43.31,0,0,0-9.88-.47C75.29,23,64.5,29.54,56.4,40.47c-1.86,2.48-3.32,4.84-3.21,5.12.05.12,1.42,1.78,3.07,3.73l3,3.54,1.28-2.46A39.64,39.64,0,0,1,71.1,37.8a34.87,34.87,0,0,1,15.41-6.46,38.49,38.49,0,0,1,9.87.1c5.63,1.23,9.32,3.09,19.2,9.64,8.53,5.66,11.81,7.61,16.21,9.55,10.52,4.68,21.65,5.73,34,3.2,17.49-3.57,33-16.07,43-34.65C210.27,16.38,210.51,16.78,206,14.64Z"/><path class="cls-1" d="M189.43,7.72c-2-1.17-6.86-3.82-6.91-3.75s-.51,1-1,2.24a30.45,30.45,0,0,1-16.77,16.51,34.22,34.22,0,0,1-19.23.89c-4.61-1.16-8.78-3.38-15.47-8.2C119.58,7.86,114,5,105.89,2.92A61.7,61.7,0,0,0,77.41,2.1,62.76,62.76,0,0,0,53.76,13.45,82.87,82.87,0,0,0,38,29.58l-.64.91,3.22,2.95A19.16,19.16,0,0,0,44,36.18c.11-.11.68-1,1.28-1.86,8-12.06,20.26-20.73,33.07-23.46,10.47-2.23,24.38-.64,34.24,3.91,4,1.84,6.88,3.65,13.32,8.37,8.22,6,12.68,8.25,19.25,9.63A42.89,42.89,0,0,0,165,32.25c8.33-2.41,15.6-8,21-16.25a54.4,54.4,0,0,0,3.75-7l.36-.83Z"/><path class="cls-1" d="M49.66,56.2l-3.49-3.47-6.75,6.82C35.7,63.32,28.7,70.39,23.88,75.28l-8.82,8.88,3.49,3.48,3.51,3.48L37.61,75.39,53.15,59.66Z"/><path class="cls-1" d="M34.53,41.94,31,38.56,15.52,54.29,0,70l3.47,3.45L7,77,22.52,61.2C31.07,52.55,38,45.42,38,45.38S36.44,43.78,34.53,41.94Z"/></g></g><g id="Text"><path class="cls-1" d="M562.28,102a79.11,79.11,0,0,1,37.94,29.45,77.75,77.75,0,0,1,14.87,46.29q0,33.69-24.13,57.22-24.13,23.83-58.13,23.83-33.69,0-57.52-23.37-24-23.23-24.59-60.26h23.22q.6,27.17,17.76,43.71a59.19,59.19,0,0,0,82.87-.45q17.14-16.86,17.15-40.68a55.29,55.29,0,0,0-17.15-41,57.16,57.16,0,0,0-41.74-17.15,45.87,45.87,0,0,1-30.66-11.23q-1.82-1.66-2.43-2.28-14-13.81-14-33.09a45.07,45.07,0,0,1,14-33.24,45.1,45.1,0,0,1,33.09-13.66q36,.16,51.45,43.41l-28.23-.15q-.9-6.23-6.37-13.05a23.65,23.65,0,0,0-33.55,0,22.47,22.47,0,0,0-7,16.69,22.15,22.15,0,0,0,7,16.4,22.81,22.81,0,0,0,16.7,7A79.84,79.84,0,0,1,562.28,102Z"/><path class="cls-1" d="M830.31,140.4q-.6,47.67-30.5,81.36Q769.6,255.6,727.26,255.6q-42.51,0-72.7-34-29.91-33.69-30.36-81.5V29.76h22.92V140.1q.45,37.65,24,64.2,23.37,26.41,56.16,26.41t56-26.26q23.54-26.4,24.14-64V29.76h22.91Z"/><path class="cls-1" d="M1068.76,169.39q-11.54,41.3-42.5,65.12-31.11,24.12-70.88,24.13-48.12,0-82.42-34-34-34.3-34-82.42,0-48,34-82.26,34.31-34,82.42-34,40.36,0,71.79,24.89,31.26,24.45,42,66.63h-24.74q-9.4-31-33.39-49.32a90.18,90.18,0,0,0-55.7-18.52q-38.55,0-65.57,27.17-27.16,27-27.17,65.41,0,38.57,27.17,65.57,27,27.18,65.57,27.17A89.78,89.78,0,0,0,1010,217.05q24-17.45,34-47.66Z"/><path class="cls-1" d="M1120.06,182.45l77.4,72.85h-34.75l-58.89-55.55-.15.15-7.74-7.13v62.38h-23.38V29.91h23.38V173.49L1230.86,29.91h32.78Z"/><path class="cls-1" d="M1291.26,255.15h-23.52V29.91h23.52Z"/><path class="cls-1" d="M1300.37,145q.6-47.67,30.51-81.36,30.19-33.84,72.55-33.84t72.7,34q29.89,33.69,30.35,81.5V255.6h-22.91V145.26q-.46-37.63-24-64.2-23.37-26.41-56.15-26.41t-56,26.26q-23.52,26.4-23.83,68.75l-.3,105.94h-22.92Z"/><path class="cls-1" d="M1725.5,101.09q42.2,17,42.19,71.79,0,51-42.8,71.64-21.71,10.62-43,10.63h-89.25V29.76h94.71a56.08,56.08,0,0,1,30.51,8.5q18.83,11.39,18.82,34Q1736.73,93.66,1725.5,101.09ZM1616.07,53.74V90.47h71.48q15.33,0,21.41-8.2a16.91,16.91,0,0,0,3.64-10q0-11.07-11.08-15.78a36.22,36.22,0,0,0-14.12-2.73Zm65.87,178.18a73.45,73.45,0,0,0,32-7.74q29.74-14.87,29.75-51.3T1714,121.58a71.38,71.38,0,0,0-32-7.74h-65.87V231.92Z"/><path class="cls-1" d="M1982.91,140.4q-.6,47.67-30.5,81.36-30.21,33.84-72.55,33.84-42.51,0-72.7-34-29.91-33.69-30.36-81.5V29.76h22.92V140.1q.45,37.65,24,64.2,23.37,26.41,56.16,26.41t56-26.26q23.54-26.4,24.14-64V29.76h22.91Z"/><path class="cls-1" d="M2163.38,53.74h-74.07V255.15h-23.53V53.74H1992V30.21h171.36Z"/><path class="cls-1" d="M2343.84,53.74h-74.07V255.15h-23.52V53.74h-73.77V30.21h171.36Z"/><path class="cls-1" d="M2464.5,102a79.13,79.13,0,0,1,37.95,29.45,77.75,77.75,0,0,1,14.87,46.29q0,33.69-24.13,57.22-24.14,23.83-58.13,23.83-33.69,0-57.52-23.37-24-23.23-24.59-60.26h23.22q.6,27.17,17.76,43.71a59.19,59.19,0,0,0,82.87-.45q17.14-16.86,17.15-40.68a55.29,55.29,0,0,0-17.15-41,57.16,57.16,0,0,0-41.74-17.15,45.87,45.87,0,0,1-30.66-11.23q-1.82-1.66-2.43-2.28Q2388,92.29,2388,73a45.07,45.07,0,0,1,14-33.24,45.1,45.1,0,0,1,33.09-13.66q36,.16,51.45,43.41l-28.23-.15q-.92-6.23-6.37-13.05a23.65,23.65,0,0,0-33.55,0,22.47,22.47,0,0,0-7,16.69,22.15,22.15,0,0,0,7,16.4,22.81,22.81,0,0,0,16.7,7A79.75,79.75,0,0,1,2464.5,102Z"/></g></svg>